<svg width="135" height="135" viewBox="0 0 135 135" fill="none" xmlns="http://www.w3.org/2000/svg">
<g clip-path="url(#clip0_101_169)">
<path d="M67.5 135C104.779 135 135 104.779 135 67.5C135 30.2208 104.779 0 67.5 0C30.2208 0 0 30.2208 0 67.5C0 104.779 30.2208 135 67.5 135Z" fill="#2BFF99"/>
<path d="M91.4966 98.4947C89.3298 100.661 86.3351 102.002 83.0275 102C81.063 102 79.2112 101.528 77.5745 100.689C75.3354 99.5418 73.5049 97.7115 72.3577 95.4725C71.5233 93.8359 71.0508 91.9864 71.0508 90.0241V89.7112C71.0785 88.5832 71.2637 87.4935 71.5829 86.4677C71.5829 86.4634 71.5851 86.4592 71.5829 86.4571C72.1576 84.5948 72.4662 82.6155 72.4684 80.5638C72.4684 77.946 71.9639 75.4452 71.0487 73.1509C70.0334 70.6012 68.5073 68.3112 66.6003 66.4021C64.6932 64.493 62.4008 62.9671 59.851 61.954C57.5565 61.0388 55.0556 60.5365 52.4376 60.5344C50.3858 60.5344 48.4064 60.8451 46.544 61.4198C46.544 61.4198 46.5376 61.4198 46.5333 61.4198C45.5074 61.739 44.4198 61.9242 43.2896 61.9519H42.9767C41.0164 61.9519 39.1647 61.4815 37.5279 60.6451C35.2888 59.4979 33.4583 57.6676 32.3111 55.4286C31.4725 53.792 31 51.9425 31 49.9759C31 46.6686 32.3388 43.674 34.5055 41.5074C36.6723 39.3408 39.6691 38 42.9767 38H94.5743C94.8084 38 95 38.1915 95 38.4257V90.0198C95 93.3272 93.6612 96.3217 91.4923 98.4904L91.4966 98.4947Z" fill="#000004"/>
<path d="M52.957 92.092C59.5844 92.092 64.957 86.7194 64.957 80.092C64.957 73.4646 59.5844 68.092 52.957 68.092C46.3296 68.092 40.957 73.4646 40.957 80.092C40.957 86.7194 46.3296 92.092 52.957 92.092Z" fill="#000004"/>
</g>
<defs>
<clipPath id="clip0_101_169">
<rect width="135" height="135" fill="white"/>
</clipPath>
</defs>
</svg>
