<svg xmlns="http://www.w3.org/2000/svg" version="1.1" xmlns:xlink="http://www.w3.org/1999/xlink" xmlns:svgjs="http://svgjs.dev/svgjs" width="1000" height="623" viewBox="0 0 1000 623"><g transform="matrix(1,0,0,1,-0.6060606060606233,0.2522267206477409)"><svg viewBox="0 0 396 247" data-background-color="#ffffff" preserveAspectRatio="xMidYMid meet" height="623" width="1000" xmlns="http://www.w3.org/2000/svg" xmlns:xlink="http://www.w3.org/1999/xlink"><g id="tight-bounds" transform="matrix(1,0,0,1,0.2400000000000091,-0.09999999999999432)"><svg viewBox="0 0 395.52 247.2" height="247.2" width="395.52"><g><svg></svg></g><g><svg viewBox="0 0 395.52 247.2" height="247.2" width="395.52"><g transform="matrix(1,0,0,1,75.54432,63.0480745696291)"><svg viewBox="0 0 244.43135999999998 121.10385086074179" height="121.10385086074179" width="244.43135999999998"><g><svg viewBox="0 0 244.43135999999998 121.10385086074179" height="121.10385086074179" width="244.43135999999998"><g><svg viewBox="0 0 244.43135999999998 121.10385086074179" height="121.10385086074179" width="244.43135999999998"><g><svg viewBox="0 0 244.43135999999998 121.10385086074179" height="121.10385086074179" width="244.43135999999998"><g><svg viewBox="0 0 244.43135999999998 121.10385086074179" height="121.10385086074179" width="244.43135999999998"><g><svg viewBox="0 0 244.43135999999998 121.10385086074179" height="121.10385086074179" width="244.43135999999998"><g transform="matrix(1,0,0,1,0,0)"><svg width="244.43135999999998" viewBox="2.85 -35.2 71.45 35.400000000000006" height="121.10385086074179" data-palette-color="#915eff"><path d="M20.9 0.2Q15.8 0.2 11.68-2.1 7.55-4.4 5.2-8.45 2.85-12.5 2.85-17.5L2.85-17.5Q2.85-22.5 5.2-26.55 7.55-30.6 11.68-32.9 15.8-35.2 20.9-35.2L20.9-35.2Q26-35.2 30.15-32.9 34.3-30.6 36.65-26.55 39-22.5 39-17.5L39-17.5Q39-12.5 36.65-8.45 34.3-4.4 30.15-2.1 26 0.2 20.9 0.2L20.9 0.2ZM20.9-1.35Q25.5-1.35 29.25-3.45 33-5.55 35.15-9.25 37.3-12.95 37.3-17.5L37.3-17.5Q37.3-22.05 35.15-25.75 33-29.45 29.25-31.55 25.5-33.65 20.9-33.65L20.9-33.65Q16.3-33.65 12.58-31.55 8.85-29.45 6.7-25.75 4.55-22.05 4.55-17.5L4.55-17.5Q4.55-12.95 6.7-9.25 8.85-5.55 12.58-3.45 16.3-1.35 20.9-1.35L20.9-1.35ZM60.4-35Q66.95-35 70.62-31.93 74.3-28.85 74.3-23.4L74.3-23.4Q74.3-17.9 70.62-14.83 66.95-11.75 60.4-11.75L60.4-11.75 49.95-11.75 49.95 0 48.25 0 48.25-35 60.4-35ZM60.5-13.3Q66.35-13.3 69.5-15.93 72.65-18.55 72.65-23.4L72.65-23.4Q72.65-28.2 69.5-30.83 66.35-33.45 60.5-33.45L60.5-33.45 49.95-33.45 49.95-13.3 60.5-13.3Z" opacity="1" transform="matrix(1,0,0,1,0,0)" fill="#915eff" class="undefined-text-0" data-fill-palette-color="primary" id="text-0"></path></svg></g></svg></g></svg></g></svg></g></svg></g></svg></g></svg></g><g><path d="M0 123.6c0-68.262 55.338-123.6 123.6-123.6 40.128 0 75.79 19.123 98.369 48.753l-6.959 0c-21.666-26.429-54.568-43.293-91.41-43.292-65.247 0-118.139 52.893-118.139 118.139 0 65.247 52.893 118.139 118.139 118.139 36.841 0 69.744-16.864 91.41-43.292h6.959c-22.579 29.63-58.241 48.753-98.369 48.753-68.262 0-123.6-55.338-123.6-123.6z" fill="#915eff" stroke="transparent" data-fill-palette-color="tertiary"></path></g></svg></g><defs></defs></svg><rect width="395.52" height="247.2" fill="none" stroke="none" visibility="hidden"></rect></g></svg></g></svg>